Coordinates
version=1
nRows=14
nColumns=36
inDegrees=yes

Units are S.I. units (second, meters, Newtons, ...)
If the header above contains a line with 'inDegrees', this indicates whether rotational values are in degrees (yes) or radians (no).

endheader
time	pelvis_tilt	pelvis_list	pelvis_rotation	pelvis_tx	pelvis_ty	pelvis_tz	hip_flexion_r	hip_adduction_r	hip_rotation_r	knee_angle_r	knee_angle_r_beta	ankle_angle_r	subtalar_angle_r	mtp_angle_r	hip_flexion_l	hip_adduction_l	hip_rotation_l	knee_angle_l	knee_angle_l_beta	ankle_angle_l	subtalar_angle_l	mtp_angle_l	lumbar_extension	lumbar_bending	lumbar_rotation	arm_flex_r	arm_add_r	arm_rot_r	elbow_flex_r	pro_sup_r	arm_flex_l	arm_add_l	arm_rot_l	elbow_flex_l	pro_sup_l
      5.88333330	     -1.54528118	     -0.17852068	      2.87692859	      1.06455289	      0.97797674	      0.08359291	      6.14146094	      1.04046380	      4.79741234	      3.01115194	      0.05255452	      2.43941125	    -13.63637640	     -7.49999987	      2.90219052	      0.49020480	      1.48277605	      2.87812284	      0.05023272	      5.82958677	     -3.37904036	     -7.49999987	     -4.86832296	      0.73030281	     -0.26416609	     18.98799244	     -8.32470581	     41.53290518	     81.71509554	     86.06950827	      6.88132168	     -7.15540125	     27.45446592	    104.67426729	     80.22674314
      5.90000000	     -1.22023507	     -0.25849145	      2.80852748	      1.06224162	      0.97938237	      0.07952606	      6.31650223	      1.17092635	      5.65952770	      3.59099463	      0.06267468	      2.24179115	    -15.29688284	     -7.49999987	      3.21998459	      0.31194793	      2.38023180	      3.64915111	      0.06368970	      6.20302613	     -4.44946622	     -7.49999987	     -5.30840770	      0.68544431	     -0.12239021	     18.00126082	     -8.62417887	     39.97002522	     81.70723220	     86.17624572	      5.70461597	     -7.59194028	     26.82567865	    104.04658570	     80.45495135
      5.91666670	     -0.92798001	     -0.30243000	      2.83934327	      1.05933900	      0.97978648	      0.07972292	      6.34486447	      1.21297409	      5.87615039	      3.84512406	      0.06711007	      2.70728012	    -15.60612127	     -7.49999987	      3.54802582	      0.21103932	      2.88839440	      4.44159270	      0.07752042	      6.79164976	     -5.07665869	     -7.49999987	     -5.61730589	      0.56613397	      0.07747661	     16.56203347	     -8.62739793	     38.38673261	     81.67910050	     84.63710909	      4.58765966	     -7.92990852	     26.38825008	    104.35957906	     79.28413742
      5.93333330	     -1.08639762	     -0.27938142	      2.86911124	      1.05605332	      0.98501902	      0.08036359	      6.56968729	      1.09590222	      6.16933365	      3.63272287	      0.06340297	      2.77167914	    -15.96808664	     -7.49999987	      4.19737350	      0.21699681	      3.03623607	      4.91019857	      0.08569913	      6.94693653	     -5.50340346	     -7.49999987	     -5.27828768	      0.45635696	      0.33783717	     14.61028651	     -8.61673964	     36.49177431	     81.91976614	     84.83841735	      3.63232895	     -8.26298235	     23.67879668	    104.99606558	     79.50637671
      5.95000000	     -1.27525072	     -0.14417285	      2.98851467	      1.05216656	      0.99266268	      0.08232809	      6.74081727	      0.81835186	      6.08852993	      3.13935659	      0.05479211	      2.80444218	    -15.83351067	     -7.49999987	      4.71390022	      0.32308859	      3.34873511	      5.09358498	      0.08889983	      6.43987101	     -5.74347325	     -7.49999987	     -5.03698961	      0.23696447	      0.41437044	     12.63131961	     -8.18497182	     34.73252321	     81.94684213	     88.67327160	      1.92585449	     -8.28048395	     20.96444777	    105.81648800	     83.38238397
      5.96666670	     -1.44007602	     -0.05774353	      2.97738000	      1.04968136	      0.99360613	      0.07946444	      6.84567981	      0.60453063	      5.77415394	      2.50535006	      0.04372661	      2.50727499	    -15.53465048	     -7.49999987	      4.86096237	      0.47574259	      3.27520409	      4.56594914	      0.07969085	      5.78104585	     -5.20081667	     -7.49999987	     -4.71527663	      0.19106745	      0.72744757	     10.65489138	     -8.30122741	     33.35237097	     82.25835566	     87.43465483	      0.17245223	     -8.08501098	     19.61852475	    106.08205503	     82.41124973
      5.98333330	     -1.52587358	     -0.05857442	      3.02365575	      1.04964585	      0.99324435	      0.07601307	      6.83690029	      0.36765448	      5.48565185	      2.01510493	      0.03517022	      2.01406646	    -15.28205839	     -7.49999987	      4.77271975	      0.58902288	      3.50171131	      3.87914712	      0.06770389	      5.03122388	     -5.02602295	     -7.49999987	     -4.39533545	      0.23580270	      0.81822419	      8.63061368	     -8.37711667	     31.91097019	     82.66205777	     87.46523532	     -1.38571837	     -8.03885522	     17.83426240	    106.41329754	     83.58961329
      6.00000000	     -1.58471299	      0.02795020	      3.02445034	      1.04533115	      0.99143941	      0.07579633	      6.97895801	      0.11606216	      5.22039070	      1.75982140	      0.03071468	      2.00849810	    -14.69644458	     -7.49999987	      4.68102097	      0.76322153	      3.51584918	      3.20303302	      0.05590347	      4.52697667	     -4.63844820	     -7.49999987	     -4.11020578	      0.20302090	      0.78231132	      6.91264058	     -8.71659971	     31.02920649	     83.19806476	     87.42600527	     -2.86291738	     -8.07912713	     16.71961442	    106.84283086	     83.68652722
      6.01666670	     -1.60781804	      0.02012803	      3.06194722	      1.04251009	      0.99360768	      0.07401754	      7.23261246	      0.02040254	      4.94605382	      1.82518617	      0.03185551	      1.59545545	    -14.44933629	     -7.49999987	      4.59429015	      0.87392614	      3.69471902	      2.58548929	      0.04512530	      4.08055355	     -4.22140375	     -7.49999987	     -3.96433012	      0.27084112	      0.86727981	      4.95370593	     -9.04292306	     29.57638274	     84.25916600	     85.05229730	     -4.40098422	     -7.89368741	     15.77769620	    107.44829796	     82.98344777
      6.03333330	     -1.41839747	     -0.08098584	      3.11456103	      1.04115797	      0.99338997	      0.07528530	      7.39293951	      0.12587465	      4.70370770	      2.24387110	      0.03916294	      1.40735449	    -14.00403686	     -7.49999987	      4.31926839	      0.79680024	      3.74751412	      2.14083468	      0.03736461	      3.90102908	     -3.67805969	     -7.49999987	     -4.14398304	      0.36938906	      0.82571922	      3.15816306	     -9.36792752	     28.16373752	     85.08403652	     87.21347400	     -5.29236386	     -8.22273993	     15.11520206	    107.50830329	     86.40283690
      6.05000000	     -1.27133113	     -0.14049376	      3.22150942	      1.03611958	      0.98921104	      0.07778628	      7.92162228	      0.28737038	      4.74962873	      3.03353816	      0.05294523	      1.18605411	    -14.27867254	     -7.49999987	      4.36262822	      0.66550743	      3.89527067	      2.02322785	      0.03531199	      3.80661827	     -3.29364666	     -7.49999987	     -4.41265499	      0.30545165	      0.69287627	      1.87173965	     -9.74452872	     27.63581150	     85.87774041	     85.20370137	     -5.91026578	     -8.92318218	     14.96896287	    107.83597335	     84.60685226
      6.06666670	     -1.17201998	     -0.27434089	      3.49320190	      1.03410156	      0.98910048	      0.07823808	      8.65367886	      0.50603337	      4.68602634	      4.23348745	      0.07388829	      1.20733208	    -14.59997259	     -7.49999987	      4.43624825	      0.48158623	      4.26176699	      1.96669888	      0.03432537	      3.80040578	     -3.06948333	     -7.49999987	     -4.58303580	      0.28213527	      0.54763799	      0.55259692	    -10.11660563	     26.82121994	     86.50617930	     86.87389624	     -6.31395734	     -9.66504459	     14.99936284	    107.73406531	     87.22607243
      6.08333330	     -0.91840492	     -0.33791278	      3.97156170	      1.02940225	      0.98262568	      0.08030980	      9.47645267	      0.74115363	      4.88543818	      5.96224165	      0.10406075	      1.50809842	    -15.43113626	     -7.49999987	      4.68442505	      0.34588820	      4.40401138	      2.41705365	      0.04218554	      4.08201784	     -3.11925506	     -7.49999987	     -5.05528010	      0.14128753	      0.42234193	     -0.44193035	    -10.62022714	     26.46043417	     87.36653724	     86.61232096	     -6.57287020	    -10.48200736	     15.27195876	    107.94743311	     87.32448083
      6.10000000	     -0.45380464	     -0.32579072	      4.57246450	      1.02815740	      0.98304639	      0.07968954	     10.12373169	      0.94560129	      5.18291971	      8.12506057	      0.14180906	      1.65583416	    -16.35577913	     -7.49999987	      4.73909939	      0.25644306	      4.58870567	      2.97231106	      0.05187661	      4.09419800	     -2.95868719	     -7.49999987	     -5.69422807	     -0.03777225	      0.27477651	     -1.16935401	    -11.16243095	     26.44454209	     87.89903509	     83.39769188	     -6.70777720	    -11.22456715	     15.87400523	    107.64050933	     84.08202586
